<svg width="32" height="32" viewBox="0 0 32 32" fill="none" xmlns="http://www.w3.org/2000/svg">
<path d="M24.0414 22.1561L29.7517 27.8663L27.8661 29.7519L22.1558 24.0417C20.1026 25.6843 17.4987 26.667 14.6667 26.667C8.04275 26.667 2.66675 21.291 2.66675 14.667C2.66675 8.04299 8.04275 2.66699 14.6667 2.66699C21.2907 2.66699 26.6667 8.04299 26.6667 14.667C26.6667 17.499 25.6841 20.1029 24.0414 22.1561ZM21.3663 21.1667C22.9967 19.4865 24.0001 17.1945 24.0001 14.667C24.0001 9.51032 19.8234 5.33366 14.6667 5.33366C9.51008 5.33366 5.33341 9.51032 5.33341 14.667C5.33341 19.8237 9.51008 24.0003 14.6667 24.0003C17.1942 24.0003 19.4862 22.997 21.1665 21.3666L21.3663 21.1667Z" fill="#4D4D60"/>
</svg>
